<svg width="60" height="60" viewBox="0 0 60 60" xmlns="http://www.w3.org/2000/svg">
  <!-- Card background -->
  <rect x="0" y="0" width="60" height="60" rx="16" fill="#EEF3FF"/>

  <!-- Yellow circle behind avatar -->
  <circle cx="30" cy="30" r="17" fill="#FFD85A"/>

  <!-- Neck -->
  <rect x="27" y="30" width="6" height="6" rx="2" fill="#F9C6A4"/>

  <!-- Face -->
  <circle cx="30" cy="25" r="7" fill="#F9C6A4"/>

  <!-- Hair -->
  <path
    d="M24 24c0-4.5 4-7 6-7 2.5 0 6 1.8 6 6.5v2.5c-1.3-1-3.2-1.7-6-1.7-2.6 0-4.7.6-6 1.5V24z"
    fill="#4B3F72"
  />

  <!-- Body / Shirt -->
  <path
    d="M21 44c1.5-6 5.2-9 9-9s7.5 3 9 9v4H21v-4z"
    fill="#6C63FF"
  />

  <!-- Subtle shirt highlight -->
  <path
    d="M30 35c-2.2 0-4.2.7-5.7 2.1L30 44l5.7-6.9C34.2 35.7 32.2 35 30 35z"
    fill="#7E79FF"
  />
</svg>
